<svg xmlns="http://www.w3.org/2000/svg" width="170.951" height="42.711" viewBox="0 0 170.951 42.711">
  <g id="g10" transform="translate(0 178.629)">
    <g id="g12" transform="translate(0 -178.629)">
      <path id="path14" d="M0-135.937H24.172l21.388-20.375A18.687,18.687,0,0,1,58.793-162.2h65.732l16.452-16.265H59.017s-14.133-.6-22.659,7.179S0-135.937,0-135.937" transform="translate(0 178.516)" fill="#fff"/>
      <path id="path16" d="M119.278-77.251h22.377l6.23-6.14a11.961,11.961,0,0,1,7.742-3.044H197.97l14.962-14.912H152.713s-8.007-.339-12.837,4.067-20.6,20.029-20.6,20.029" transform="translate(-90.758 119.83)" fill="#fff"/>
      <path id="path18" d="M453.252-136.085H426.779l42.434-42.544h26.473l-42.434,42.544" transform="translate(-324.735 178.629)" fill="#fff"/>
      <path id="path20" d="M584.745-16.452v-4.3h-1.606v-.874h4.3v.874h-1.6v4.3h-1.093" transform="translate(-443.709 59.162)" fill="#fff"/>
      <path id="path22" d="M604.018-16.452v-5.17h1.636l.982,3.527.971-3.527h1.64v5.17h-1.015v-4.069l-1.075,4.069H606.1l-1.071-4.069v4.069h-1.015" transform="translate(-459.596 59.162)" fill="#fff"/>
    </g>
  </g>
</svg>
